# xmcd CD database file
#
# Track frame offsets:
#	183
#	25508
#	45733
#	62333
#	97120
#	123858
#	145170
#	173408
#	197758
#	222520
#	256033
#	277658
#	294870
#
# Disc length: 4425 seconds
#
# Revision: 1
# Processed by: cddbd v1.5.2PL0 Copyright (c) Steve Scherf et al.
# Submitted via: CDex 1.51
#
DISCID=aa11470d
DTITLE=Wes Montgomery - Vol. 239 -  Hank Jones - Percy Heath
DYEAR=1995
DGENRE=Jazz
TTITLE0=Twisted Blues
TTITLE1=Airegin
TTITLE2=Cotton Tail
TTITLE3=One for My Baby
TTITLE4=I'm Just a Lucky So and So
TTITLE5=Polka Dots and Moonbeams
TTITLE6=Four On Six
TTITLE7=D-Natural Blues
TTITLE8=I Wish I Knew
TTITLE9=West Coast Blues
TTITLE10=Something Like Bags
TTITLE11=Days of Wine and Roses
TTITLE12=Blues Riff
EXTD=YEAR: 1995
EXTT0=
EXTT1=
EXTT2=
EXTT3=
EXTT4=
EXTT5=
EXTT6=
EXTT7=
EXTT8=
EXTT9=
EXTT10=
EXTT11=
EXTT12=
PLAYORDER=
